<?xml version="1.0" encoding="utf-8"?>
<!-- Generator: Adobe Illustrator 22.0.1, SVG Export Plug-In . SVG Version: 6.00 Build 0)  -->
<svg version="1.1" id="Layer_1" xmlns="http://www.w3.org/2000/svg" xmlns:xlink="http://www.w3.org/1999/xlink" x="0px" y="0px" viewBox="0 0 100 100" style="enable-background:new 0 0 100 100;" xml:space="preserve">
	<path fill="#888888" stroke="#888888" stroke-width="4" d="M66.8,0c-1.1,0.1-1.9,1.1-1.8,2.2s1.1,1.9,2.2,1.8h25.9L51.4,45.8c-0.6,0.5-0.9,1.3-0.7,2c0.2,0.7,0.8,1.3,1.5,1.5
		c0.8,0.2,1.5-0.1,2-0.7L96,6.9v25.9c0,0.7,0.4,1.4,1,1.8c0.6,0.4,1.4,0.4,2,0c0.6-0.4,1-1,1-1.8V0H67.2c-0.1,0-0.1,0-0.2,0
		C66.9,0,66.9,0,66.8,0z M4,20c-1,0-2.1,0.4-2.9,1.1C0.4,21.9,0,23,0,24v72c0,1,0.4,2.1,1.1,2.9C1.9,99.6,3,100,4,100h72
		c1,0,2.1-0.4,2.9-1.1C79.6,98.1,80,97,80,96V36c0-0.7-0.4-1.4-1-1.8c-0.6-0.4-1.4-0.4-2,0c-0.6,0.4-1,1-1,1.8v60H4V24h60
		c0.7,0,1.4-0.4,1.8-1c0.4-0.6,0.4-1.4,0-2c-0.4-0.6-1-1-1.8-1L4,20z"/>
</svg>
